# xmcd
#
# Track frame offsets:
#	150
#	14077
#	29648
#	37821
#	46188
#	60992
#	75454
#	92665
#	102879
#	114054
#	128372
#	142827
#	152232
#	164541
#
# Disc length: 2293 seconds
#
# Revision: 1
# Processed by: cddbd v1.5.2PL0 Copyright (c) Steve Scherf et al.
# Submitted via: audiograbber 1.83.01
#
DISCID=9e08f30e
DTITLE=Buddy Pendleton - Delivers!
DYEAR=2007
DGENRE=Bluegrass
TTITLE0=Bill Bailey
TTITLE1=Fiddlin' Joe
TTITLE2=Buddy's Waltz
TTITLE3=Rutland's Reel
TTITLE4=Red Haired Boy
TTITLE5=Meadows of Dan
TTITLE6=Soldier's Joy
TTITLE7=Katie Hill
TTITLE8=Say Ole Man
TTITLE9=Florida Blues
TTITLE10=Grandfathers Clock
TTITLE11=Danny Boy
TTITLE12=The Unclouded Day
TTITLE13=How Great Thou Art
EXTD=
EXTT0=
EXTT1=
EXTT2=
EXTT3=
EXTT4=
EXTT5=
EXTT6=
EXTT7=
EXTT8=
EXTT9=
EXTT10=
EXTT11=
EXTT12=
EXTT13=
PLAYORDER=
